<?xml version="1.0" encoding="UTF-8" standalone="no"?>
<!-- Generator: Adobe Illustrator 16.0.0, SVG Export Plug-In . SVG Version: 6.00 Build 0)  -->

<svg
   xmlns:dc="http://purl.org/dc/elements/1.1/"
   xmlns:cc="http://creativecommons.org/ns#"
   xmlns:rdf="http://www.w3.org/1999/02/22-rdf-syntax-ns#"
   xmlns:svg="http://www.w3.org/2000/svg"
   xmlns="http://www.w3.org/2000/svg"
   xmlns:sodipodi="http://sodipodi.sourceforge.net/DTD/sodipodi-0.dtd"
   xmlns:inkscape="http://www.inkscape.org/namespaces/inkscape"
   version="1.1"
   id="Camada_1"
   x="0px"
   y="0px"
   width="260"
   height="73"
   viewBox="0 0 259.99999 73.000002"
   enable-background="new 0 0 595.28 170.079"
   xml:space="preserve"
   sodipodi:docname="ECA_azul.svg"
   inkscape:version="0.92.3 (2405546, 2018-03-11)"><metadata
   id="metadata125"><rdf:RDF><cc:Work
       rdf:about=""><dc:format>image/svg+xml</dc:format><dc:type
         rdf:resource="http://purl.org/dc/dcmitype/StillImage" /><dc:title></dc:title></cc:Work></rdf:RDF></metadata><defs
   id="defs123">
		
		
		
	
			
			
			
		
			
			
			
			
			
			
			
			
			
			
			
			
			
			
			
			
			
			
			
			
			
			
		
			
			
			
			
			
			
			
			
			
			
			
			
			
			
			
			
			
			
			
			
			
			
			
			
			
			
		
				
			
				
			
				
			</defs><sodipodi:namedview
   pagecolor="#ffffff"
   bordercolor="#666666"
   borderopacity="1"
   objecttolerance="10"
   gridtolerance="10"
   guidetolerance="10"
   inkscape:pageopacity="0"
   inkscape:pageshadow="2"
   inkscape:window-width="1920"
   inkscape:window-height="1016"
   id="namedview121"
   showgrid="false"
   inkscape:zoom="4"
   inkscape:cx="119.77477"
   inkscape:cy="34.783945"
   inkscape:window-x="0"
   inkscape:window-y="27"
   inkscape:window-maximized="1"
   inkscape:current-layer="g3952" />
<g
   id="g118"
   transform="translate(0,-97.078995)">
	<g
   id="g3952"
   inkscape:export-filename="/home/leandro/Imagens/Logo_ECA.png"
   inkscape:export-xdpi="96"
   inkscape:export-ydpi="96"
   transform="matrix(0.90965388,0,0,0.90965388,-34.338525,52.945262)"><g
     id="g4686"
     inkscape:export-xdpi="96"
     inkscape:export-ydpi="96"><path
       style="clip-rule:evenodd;fill:#005a9b;fill-rule:evenodd;fill-opacity:1"
       inkscape:connector-curvature="0"
       id="path2"
       d="M 106.511,59.08 C 91.458,57.026 87.6,74.213 99.124,79.754 c 3.57,1.687 14.659,1.137 15.283,-10.056 0.418,-5.646 9.662,-5.964 9.791,0.805 -3.326,28.076 -40.505,24.524 -41.582,-0.675 0.438,-18.925 18.398,-22.761 26.729,-19.981 5.023,1.68 3.515,9.921 -2.834,9.233" /><path
       style="clip-rule:evenodd;fill:#005a9b;fill-rule:evenodd;fill-opacity:1"
       inkscape:connector-curvature="0"
       id="path6"
       d="m 158.572,85.424 c -0.32,-6.646 0.361,-12.029 -0.254,-17.61 -1.364,-12.379 -16.227,-10.771 -18.943,-5.843 -2.002,1.426 -7.191,15.915 7.402,18.329 8.784,0.879 5.657,14.87 -7.404,8.408 -25.2,-12.848 -8.993,-46.504 15.014,-38.781 7.874,2.457 13.068,8.982 13.604,15.216 0.733,8.448 0.381,16.521 0.399,20.409 0.014,6.539 -9.969,5.551 -9.818,-0.128" /><path
       style="clip-rule:evenodd;fill:#005a9b;fill-rule:evenodd;fill-opacity:1"
       inkscape:connector-curvature="0"
       id="path10"
       d="m 70.059,51.704 c 3.208,2.402 3.971,5.162 2.046,8.18 L 62.012,73.789 c -3.101,3.304 -10.004,-1.755 -7.815,-6.047 l 6.177,-9.358 C 48.681,57.501 43.112,74.229 54.516,79.923 57.811,81.835 69.151,80.935 70.06,69.7 c 0.427,-5.738 9.816,-6.062 9.947,0.817 -3.383,28.532 -42.18,23.91 -42.258,-0.686 1.41,-20.125 21.947,-24.973 32.31,-18.127" /><path
       d="M 38.442,107.748 V 97.31 h 7.738 v 1.764 h -5.637 v 2.316 h 5.245 v 1.757 h -5.245 v 2.845 h 5.836 v 1.757 h -7.937 z"
       id="path16"
       inkscape:connector-curvature="0"
       style="fill:#005a9b;fill-opacity:1" /><path
       d="m 47.78,104.351 2.055,-0.2 c 0.117,0.688 0.372,1.194 0.747,1.519 0.377,0.324 0.893,0.483 1.531,0.483 0.677,0 1.196,-0.14 1.538,-0.426 0.339,-0.292 0.51,-0.626 0.51,-1.009 0,-0.25 -0.063,-0.461 -0.22,-0.633 -0.14,-0.171 -0.396,-0.325 -0.755,-0.451 -0.251,-0.089 -0.811,-0.237 -1.681,-0.457 -1.14,-0.279 -1.932,-0.626 -2.391,-1.035 -0.631,-0.572 -0.96,-1.273 -0.96,-2.102 0,-0.527 0.154,-1.024 0.456,-1.491 0.302,-0.461 0.73,-0.813 1.299,-1.056 0.577,-0.245 1.254,-0.361 2.058,-0.361 1.318,0 2.304,0.287 2.956,0.86 0.667,0.573 1.011,1.345 1.047,2.301 l -2.103,0.092 c -0.096,-0.539 -0.29,-0.924 -0.578,-1.155 -0.304,-0.236 -0.753,-0.355 -1.346,-0.355 -0.613,0 -1.084,0.128 -1.433,0.376 -0.22,0.166 -0.339,0.381 -0.339,0.651 0,0.243 0.111,0.455 0.321,0.636 0.256,0.219 0.905,0.454 1.934,0.694 1.026,0.242 1.783,0.496 2.281,0.752 0.483,0.256 0.865,0.614 1.15,1.059 0.269,0.453 0.418,1.004 0.418,1.668 0,0.599 -0.164,1.156 -0.506,1.68 -0.327,0.524 -0.803,0.912 -1.411,1.162 -0.608,0.259 -1.363,0.387 -2.264,0.387 -1.328,0 -2.344,-0.305 -3.044,-0.916 -0.713,-0.612 -1.138,-1.501 -1.27,-2.673 z"
       id="path18"
       inkscape:connector-curvature="0"
       style="fill:#005a9b;fill-opacity:1" /><path
       d="m 64.877,103.913 2.047,0.644 c -0.319,1.144 -0.835,1.985 -1.574,2.543 -0.724,0.55 -1.643,0.831 -2.771,0.831 -1.386,0 -2.521,-0.479 -3.421,-1.422 -0.886,-0.951 -1.335,-2.246 -1.335,-3.885 0,-1.74 0.453,-3.088 1.342,-4.053 0.906,-0.959 2.084,-1.439 3.551,-1.439 1.269,0 2.309,0.377 3.106,1.129 0.481,0.45 0.833,1.086 1.073,1.925 l -2.093,0.499 C 64.684,100.14 64.423,99.718 64.031,99.404 63.639,99.09 63.158,98.936 62.6,98.936 c -0.771,0 -1.402,0.276 -1.883,0.828 -0.481,0.56 -0.726,1.46 -0.726,2.7 0,1.321 0.241,2.264 0.721,2.821 0.467,0.558 1.085,0.844 1.841,0.844 0.565,0 1.047,-0.184 1.45,-0.536 0.405,-0.358 0.701,-0.918 0.874,-1.68 z"
       id="path20"
       inkscape:connector-curvature="0"
       style="fill:#005a9b;fill-opacity:1" /><path
       d="m 68.447,102.594 c 0,-1.062 0.156,-1.96 0.478,-2.677 0.231,-0.534 0.564,-1.01 0.976,-1.434 0.411,-0.425 0.851,-0.739 1.347,-0.943 0.654,-0.273 1.4,-0.408 2.254,-0.408 1.534,0 2.769,0.477 3.687,1.428 0.933,0.959 1.384,2.281 1.384,3.98 0,1.692 -0.448,3.006 -1.373,3.961 -0.91,0.949 -2.137,1.43 -3.672,1.43 -1.559,0 -2.796,-0.479 -3.706,-1.422 -0.912,-0.951 -1.375,-2.256 -1.375,-3.915 z m 2.171,-0.07 c 0,1.182 0.277,2.077 0.82,2.688 0.542,0.611 1.242,0.917 2.085,0.917 0.83,0 1.526,-0.303 2.061,-0.909 0.546,-0.605 0.81,-1.514 0.81,-2.726 0,-1.196 -0.264,-2.089 -0.787,-2.677 -0.52,-0.588 -1.223,-0.882 -2.083,-0.882 -0.873,0 -1.58,0.295 -2.107,0.894 -0.528,0.596 -0.799,1.494 -0.799,2.695 z"
       id="path22"
       inkscape:connector-curvature="0"
       style="fill:#005a9b;fill-opacity:1" /><path
       d="M 80.423,107.748 V 97.394 h 2.112 v 8.598 h 5.235 v 1.757 h -7.347 z"
       id="path24"
       inkscape:connector-curvature="0"
       style="fill:#005a9b;fill-opacity:1" /><path
       d="m 98.841,107.748 h -2.296 l -0.909,-2.37 h -4.173 l -0.866,2.37 H 88.358 L 92.43,97.31 h 2.231 z m -3.888,-4.127 -1.428,-3.88 -1.41,3.88 z"
       id="path26"
       inkscape:connector-curvature="0"
       style="fill:#005a9b;fill-opacity:1" /><path
       d="m 105.351,97.31 h 3.847 c 0.874,0 1.541,0.064 1.986,0.199 0.614,0.18 1.147,0.501 1.573,0.959 0.439,0.465 0.781,1.026 1,1.69 0.227,0.673 0.349,1.489 0.349,2.474 0,0.856 -0.114,1.601 -0.33,2.217 -0.251,0.764 -0.621,1.38 -1.111,1.848 -0.362,0.354 -0.864,0.637 -1.487,0.836 -0.457,0.144 -1.08,0.216 -1.856,0.216 h -3.97 V 97.31 Z m 2.105,1.763 v 6.918 h 1.572 c 0.589,0 1.016,-0.035 1.28,-0.1 0.338,-0.084 0.628,-0.232 0.845,-0.438 0.225,-0.204 0.406,-0.535 0.56,-1.008 0.139,-0.465 0.215,-1.105 0.215,-1.908 0,-0.807 -0.076,-1.428 -0.215,-1.861 -0.153,-0.435 -0.353,-0.768 -0.599,-1.013 -0.26,-0.237 -0.58,-0.406 -0.975,-0.491 -0.301,-0.063 -0.876,-0.1 -1.739,-0.1 h -0.944 z"
       id="path28"
       inkscape:connector-curvature="0"
       style="fill:#005a9b;fill-opacity:1" /><path
       d="M 116.034,107.748 V 97.31 h 7.738 v 1.764 h -5.622 v 2.316 h 5.232 v 1.757 h -5.232 v 2.845 h 5.821 v 1.757 h -7.937 z"
       id="path30"
       inkscape:connector-curvature="0"
       style="fill:#005a9b;fill-opacity:1" /><path
       d="m 137.841,103.913 2.048,0.644 c -0.316,1.144 -0.837,1.985 -1.561,2.543 -0.738,0.55 -1.658,0.831 -2.773,0.831 -1.386,0 -2.535,-0.479 -3.42,-1.422 -0.899,-0.951 -1.349,-2.246 -1.349,-3.885 0,-1.74 0.451,-3.088 1.356,-4.053 0.89,-0.959 2.068,-1.439 3.535,-1.439 1.282,0 2.309,0.377 3.106,1.129 0.48,0.45 0.833,1.086 1.074,1.925 l -2.085,0.499 c -0.127,-0.545 -0.39,-0.967 -0.779,-1.281 -0.391,-0.314 -0.859,-0.468 -1.425,-0.468 -0.778,0 -1.398,0.276 -1.882,0.828 -0.487,0.56 -0.718,1.46 -0.718,2.7 0,1.321 0.226,2.264 0.707,2.821 0.479,0.558 1.092,0.844 1.855,0.844 0.557,0 1.04,-0.184 1.44,-0.536 0.403,-0.358 0.697,-0.918 0.871,-1.68 z"
       id="path32"
       inkscape:connector-curvature="0"
       style="fill:#005a9b;fill-opacity:1" /><path
       d="m 141.41,102.594 c 0,-1.062 0.163,-1.96 0.484,-2.677 0.239,-0.534 0.559,-1.01 0.97,-1.434 0.411,-0.425 0.864,-0.739 1.347,-0.943 0.653,-0.273 1.399,-0.408 2.254,-0.408 1.534,0 2.769,0.477 3.7,1.428 0.918,0.959 1.385,2.281 1.385,3.98 0,1.692 -0.463,3.006 -1.374,3.961 -0.926,0.949 -2.15,1.43 -3.682,1.43 -1.548,0 -2.786,-0.479 -3.71,-1.422 -0.911,-0.951 -1.374,-2.256 -1.374,-3.915 z m 2.172,-0.07 c 0,1.182 0.277,2.077 0.819,2.688 0.558,0.611 1.243,0.917 2.086,0.917 0.844,0 1.526,-0.303 2.075,-0.909 0.534,-0.605 0.809,-1.514 0.809,-2.726 0,-1.196 -0.267,-2.089 -0.79,-2.677 -0.53,-0.588 -1.219,-0.882 -2.094,-0.882 -0.874,0 -1.565,0.295 -2.108,0.894 -0.527,0.596 -0.797,1.494 -0.797,2.695 z"
       id="path34"
       inkscape:connector-curvature="0"
       style="fill:#005a9b;fill-opacity:1" /><path
       d="M 153.31,107.748 V 97.31 h 3.151 l 1.901,7.124 1.865,-7.124 h 3.164 v 10.438 h -1.96 v -8.215 l -2.064,8.215 h -2.031 l -2.07,-8.215 v 8.215 z"
       id="path36"
       inkscape:connector-curvature="0"
       style="fill:#005a9b;fill-opacity:1" /><path
       d="m 165.615,97.31 h 2.117 v 5.652 c 0,0.897 0.027,1.478 0.068,1.748 0.096,0.43 0.312,0.769 0.647,1.031 0.343,0.256 0.805,0.388 1.394,0.388 0.598,0 1.052,-0.124 1.351,-0.372 0.31,-0.24 0.492,-0.541 0.558,-0.9 0.051,-0.354 0.086,-0.943 0.086,-1.771 V 97.31 h 2.116 v 5.483 c 0,1.25 -0.062,2.142 -0.17,2.653 -0.122,0.52 -0.334,0.959 -0.633,1.312 -0.313,0.36 -0.725,0.644 -1.23,0.855 -0.52,0.212 -1.181,0.317 -2.01,0.317 -0.997,0 -1.75,-0.115 -2.273,-0.348 -0.51,-0.232 -0.917,-0.532 -1.222,-0.897 -0.294,-0.366 -0.49,-0.751 -0.592,-1.155 -0.133,-0.598 -0.207,-1.487 -0.207,-2.652 z"
       id="path38"
       inkscape:connector-curvature="0"
       style="fill:#005a9b;fill-opacity:1" /><path
       d="M 176.339,107.748 V 97.31 h 2.056 l 4.265,6.971 V 97.31 h 1.956 v 10.438 h -2.109 l -4.21,-6.811 v 6.811 z"
       id="path40"
       inkscape:connector-curvature="0"
       style="fill:#005a9b;fill-opacity:1" /><path
       d="M 186.936,107.748 V 97.31 h 2.102 v 10.438 z"
       id="path42"
       inkscape:connector-curvature="0"
       style="fill:#005a9b;fill-opacity:1" /><path
       d="m 197.875,103.913 2.047,0.644 c -0.31,1.144 -0.837,1.985 -1.561,2.543 -0.737,0.55 -1.657,0.831 -2.771,0.831 -1.386,0 -2.536,-0.479 -3.422,-1.422 -0.898,-0.951 -1.349,-2.246 -1.349,-3.885 0,-1.74 0.452,-3.088 1.357,-4.053 0.89,-0.959 2.069,-1.439 3.535,-1.439 1.284,0 2.311,0.377 3.107,1.129 0.479,0.45 0.833,1.086 1.073,1.925 l -2.079,0.499 c -0.133,-0.545 -0.394,-0.967 -0.786,-1.281 -0.391,-0.314 -0.858,-0.468 -1.418,-0.468 -0.784,0 -1.399,0.276 -1.887,0.828 -0.488,0.56 -0.718,1.46 -0.718,2.7 0,1.321 0.226,2.264 0.707,2.821 0.479,0.558 1.097,0.844 1.854,0.844 0.558,0 1.045,-0.184 1.449,-0.536 0.402,-0.358 0.688,-0.918 0.862,-1.68 z"
       id="path44"
       inkscape:connector-curvature="0"
       style="fill:#005a9b;fill-opacity:1" /><path
       d="m 211.293,107.748 h -2.286 l -0.92,-2.37 h -4.173 l -0.865,2.37 h -2.235 l 4.067,-10.438 h 2.231 z m -3.874,-4.127 -1.441,-3.88 -1.41,3.88 z"
       id="path46"
       inkscape:connector-curvature="0"
       style="fill:#005a9b;fill-opacity:1" /><path
       d="m 219.233,103.913 2.049,0.644 c -0.308,1.144 -0.838,1.985 -1.562,2.543 -0.725,0.55 -1.657,0.831 -2.772,0.831 -1.386,0 -2.525,-0.479 -3.42,-1.422 -0.9,-0.951 -1.335,-2.246 -1.335,-3.885 0,-1.74 0.438,-3.088 1.342,-4.053 0.892,-0.959 2.084,-1.439 3.536,-1.439 1.283,0 2.323,0.377 3.121,1.129 0.466,0.45 0.832,1.086 1.059,1.925 l -2.078,0.499 c -0.133,-0.545 -0.381,-0.967 -0.771,-1.281 -0.393,-0.314 -0.873,-0.468 -1.431,-0.468 -0.772,0 -1.403,0.276 -1.891,0.828 -0.474,0.56 -0.718,1.46 -0.718,2.7 0,1.321 0.24,2.264 0.706,2.821 0.481,0.558 1.1,0.844 1.855,0.844 0.558,0 1.046,-0.184 1.45,-0.536 0.405,-0.358 0.688,-0.918 0.86,-1.68 z m -4.417,6.711 v -0.844 c 0.481,0.056 0.934,0.076 1.342,0.076 0.424,0 0.73,-0.074 0.937,-0.223 0.152,-0.115 0.236,-0.266 0.236,-0.444 0,-0.159 -0.079,-0.302 -0.222,-0.422 -0.143,-0.12 -0.373,-0.177 -0.686,-0.177 -0.302,0 -0.605,0.047 -0.933,0.146 l 0.184,-0.706 c 0.368,-0.13 0.767,-0.194 1.197,-0.194 0.593,0 1.048,0.129 1.358,0.394 0.309,0.259 0.459,0.578 0.459,0.951 0,0.419 -0.169,0.761 -0.507,1.021 -0.465,0.353 -1.13,0.536 -1.979,0.536 -0.612,0 -1.079,-0.041 -1.386,-0.114 z"
       id="path48"
       inkscape:connector-curvature="0"
       style="fill:#005a9b;fill-opacity:1" /><path
       d="m 222.818,102.594 c 0,-1.062 0.156,-1.96 0.469,-2.677 0.241,-0.534 0.559,-1.01 0.97,-1.434 0.411,-0.425 0.866,-0.739 1.362,-0.943 0.639,-0.273 1.4,-0.408 2.238,-0.408 1.55,0 2.781,0.477 3.7,1.428 0.919,0.959 1.386,2.281 1.386,3.98 0,1.692 -0.464,3.006 -1.374,3.961 -0.925,0.949 -2.137,1.43 -3.681,1.43 -1.55,0 -2.787,-0.479 -3.696,-1.422 -0.924,-0.951 -1.374,-2.256 -1.374,-3.915 z m 2.171,-0.07 c 0,1.182 0.264,2.077 0.821,2.688 0.541,0.611 1.228,0.917 2.069,0.917 0.846,0 1.54,-0.303 2.076,-0.909 0.534,-0.605 0.808,-1.514 0.808,-2.726 0,-1.196 -0.266,-2.089 -0.786,-2.677 -0.533,-0.588 -1.223,-0.882 -2.098,-0.882 -0.858,0 -1.566,0.295 -2.093,0.894 -0.541,0.596 -0.797,1.494 -0.797,2.695 z m 1.174,-5.791 h -0.92 c -0.006,-0.109 -0.007,-0.199 -0.007,-0.26 0,-0.498 0.129,-0.881 0.375,-1.146 0.23,-0.273 0.549,-0.402 0.927,-0.402 0.164,0 0.315,0.012 0.468,0.049 0.139,0.039 0.403,0.141 0.779,0.308 0.376,0.166 0.663,0.253 0.879,0.253 0.162,0 0.284,-0.047 0.379,-0.142 0.109,-0.095 0.18,-0.259 0.195,-0.476 h 0.936 c -0.004,0.637 -0.134,1.099 -0.356,1.373 -0.237,0.273 -0.548,0.413 -0.916,0.413 -0.158,0 -0.314,-0.018 -0.47,-0.054 -0.116,-0.023 -0.394,-0.12 -0.819,-0.291 -0.439,-0.164 -0.767,-0.245 -0.967,-0.245 -0.147,0 -0.261,0.042 -0.352,0.134 -0.078,0.092 -0.125,0.257 -0.131,0.486 z"
       id="path50"
       inkscape:connector-curvature="0"
       style="fill:#005a9b;fill-opacity:1" /><path
       d="M 234.734,107.748 V 97.31 h 7.738 v 1.764 h -5.634 v 2.316 h 5.241 v 1.757 h -5.241 v 2.845 h 5.833 v 1.757 h -7.937 z"
       id="path52"
       inkscape:connector-curvature="0"
       style="fill:#005a9b;fill-opacity:1" /><path
       d="m 244.071,104.351 2.056,-0.2 c 0.123,0.688 0.371,1.194 0.747,1.519 0.377,0.324 0.893,0.483 1.537,0.483 0.671,0 1.189,-0.14 1.531,-0.426 0.339,-0.292 0.511,-0.626 0.511,-1.009 0,-0.25 -0.064,-0.461 -0.206,-0.633 -0.154,-0.171 -0.396,-0.325 -0.77,-0.451 -0.235,-0.089 -0.81,-0.237 -1.68,-0.457 -1.14,-0.279 -1.932,-0.626 -2.378,-1.035 -0.644,-0.572 -0.973,-1.273 -0.973,-2.102 0,-0.527 0.16,-1.024 0.456,-1.491 0.309,-0.461 0.741,-0.813 1.312,-1.056 0.563,-0.245 1.241,-0.361 2.044,-0.361 1.319,0 2.305,0.287 2.971,0.86 0.653,0.573 1.011,1.345 1.032,2.301 l -2.103,0.092 c -0.096,-0.539 -0.289,-0.924 -0.578,-1.155 -0.304,-0.236 -0.738,-0.355 -1.332,-0.355 -0.612,0 -1.098,0.128 -1.439,0.376 -0.226,0.166 -0.345,0.381 -0.345,0.651 0,0.243 0.111,0.455 0.321,0.636 0.265,0.219 0.905,0.454 1.933,0.694 1.027,0.242 1.783,0.496 2.282,0.752 0.482,0.256 0.865,0.614 1.148,1.059 0.285,0.453 0.42,1.004 0.42,1.668 0,0.599 -0.165,1.156 -0.507,1.68 -0.327,0.524 -0.803,0.912 -1.41,1.162 -0.604,0.259 -1.364,0.387 -2.265,0.387 -1.328,0 -2.343,-0.305 -3.044,-0.916 -0.699,-0.612 -1.123,-1.501 -1.271,-2.673 z"
       id="path54"
       inkscape:connector-curvature="0"
       style="fill:#005a9b;fill-opacity:1" /><path
       d="M 259.733,107.748 V 97.31 h 7.739 v 1.764 h -5.623 v 2.316 h 5.232 v 1.757 h -5.232 v 2.845 h 5.822 v 1.757 h -7.938 z"
       id="path56"
       inkscape:connector-curvature="0"
       style="fill:#005a9b;fill-opacity:1" /><path
       d="m 284.276,107.748 h -2.291 l -0.911,-2.37 h -4.182 l -0.852,2.37 h -2.239 l 4.07,-10.438 h 2.219 z m -3.879,-4.127 -1.441,-3.88 -1.412,3.88 z"
       id="path58"
       inkscape:connector-curvature="0"
       style="fill:#005a9b;fill-opacity:1" /><path
       d="M 285.548,107.748 V 97.31 h 4.439 c 1.11,0 1.923,0.093 2.436,0.28 0.499,0.187 0.904,0.522 1.215,1.001 0.298,0.478 0.446,1.029 0.446,1.642 0,0.789 -0.218,1.432 -0.684,1.943 -0.465,0.512 -1.146,0.835 -2.07,0.964 0.46,0.27 0.835,0.561 1.139,0.881 0.289,0.318 0.69,0.881 1.2,1.694 l 1.267,2.033 h -2.517 l -1.533,-2.271 c -0.537,-0.813 -0.905,-1.326 -1.104,-1.537 -0.199,-0.205 -0.412,-0.354 -0.636,-0.431 -0.225,-0.077 -0.576,-0.118 -1.065,-0.118 h -0.416 v 4.356 h -2.117 z m 2.116,-6.021 h 1.557 c 1.013,0 1.646,-0.046 1.888,-0.13 0.256,-0.084 0.452,-0.234 0.591,-0.444 0.151,-0.21 0.214,-0.468 0.214,-0.782 0,-0.349 -0.086,-0.633 -0.273,-0.848 -0.187,-0.218 -0.456,-0.357 -0.794,-0.411 -0.168,-0.024 -0.689,-0.038 -1.549,-0.038 h -1.633 v 2.653 z"
       id="path60"
       inkscape:connector-curvature="0"
       style="fill:#005a9b;fill-opacity:1" /><path
       d="m 298.573,107.748 v -8.675 h -3.091 V 97.31 h 8.291 v 1.764 h -3.086 v 8.675 h -2.114 z"
       id="path62"
       inkscape:connector-curvature="0"
       style="fill:#005a9b;fill-opacity:1" /><path
       d="M 305.285,107.748 V 97.31 h 7.741 v 1.764 h -5.638 v 2.316 h 5.246 v 1.757 h -5.246 v 2.845 h 5.838 v 1.757 h -7.941 z"
       id="path64"
       inkscape:connector-curvature="0"
       style="fill:#005a9b;fill-opacity:1" /><path
       d="m 314.625,104.351 2.056,-0.2 c 0.116,0.688 0.372,1.194 0.748,1.519 0.374,0.324 0.878,0.483 1.521,0.483 0.686,0 1.19,-0.14 1.546,-0.426 0.34,-0.292 0.51,-0.626 0.51,-1.009 0,-0.25 -0.078,-0.461 -0.219,-0.633 -0.141,-0.171 -0.397,-0.325 -0.756,-0.451 -0.25,-0.089 -0.81,-0.237 -1.694,-0.457 -1.124,-0.279 -1.917,-0.626 -2.377,-1.035 -0.645,-0.572 -0.959,-1.273 -0.959,-2.102 0,-0.527 0.147,-1.024 0.456,-1.491 0.295,-0.461 0.731,-0.813 1.297,-1.056 0.564,-0.245 1.256,-0.361 2.059,-0.361 1.304,0 2.291,0.287 2.956,0.86 0.668,0.573 1.011,1.345 1.047,2.301 l -2.113,0.092 c -0.085,-0.539 -0.277,-0.924 -0.581,-1.155 -0.29,-0.236 -0.738,-0.355 -1.332,-0.355 -0.613,0 -1.096,0.128 -1.441,0.376 -0.226,0.166 -0.33,0.381 -0.33,0.651 0,0.243 0.098,0.455 0.309,0.636 0.269,0.219 0.918,0.454 1.946,0.694 1.027,0.242 1.783,0.496 2.268,0.752 0.497,0.256 0.881,0.614 1.163,1.059 0.271,0.453 0.404,1.004 0.404,1.668 0,0.599 -0.164,1.156 -0.491,1.68 -0.326,0.524 -0.803,0.912 -1.41,1.162 -0.609,0.259 -1.363,0.387 -2.278,0.387 -1.314,0 -2.33,-0.305 -3.031,-0.916 -0.716,-0.612 -1.14,-1.501 -1.274,-2.673 z"
       id="path66"
       inkscape:connector-curvature="0"
       style="fill:#005a9b;fill-opacity:1" /><path
       d="m 38.439,114.954 h 2.68 v 7.209 c 0,1.146 0.035,1.885 0.106,2.226 0.109,0.548 0.388,0.981 0.823,1.313 0.435,0.332 1.026,0.494 1.772,0.494 0.76,0 1.333,-0.152 1.721,-0.466 0.386,-0.312 0.621,-0.693 0.706,-1.151 0.07,-0.451 0.112,-1.208 0.112,-2.258 v -7.367 h 2.693 v 6.996 c 0,1.598 -0.077,2.722 -0.22,3.386 -0.142,0.657 -0.413,1.218 -0.803,1.669 -0.39,0.451 -0.921,0.816 -1.563,1.084 -0.658,0.268 -1.515,0.404 -2.562,0.404 -1.272,0 -2.233,-0.144 -2.894,-0.442 -0.661,-0.294 -1.175,-0.675 -1.556,-1.142 -0.382,-0.467 -0.635,-0.957 -0.753,-1.473 -0.181,-0.768 -0.265,-1.889 -0.265,-3.384 v -7.098 z"
       id="path70"
       inkscape:connector-curvature="0"
       style="fill:#005a9b;fill-opacity:1" /><path
       d="m 51.911,128.264 v -13.31 h 2.608 l 5.451,8.893 v -8.893 h 2.503 v 13.31 H 59.77 l -5.363,-8.678 v 8.678 z"
       id="path72"
       inkscape:connector-curvature="0"
       style="fill:#005a9b;fill-opacity:1" /><path
       d="m 65.23,128.264 v -13.31 h 2.692 v 13.31 z"
       id="path74"
       inkscape:connector-curvature="0"
       style="fill:#005a9b;fill-opacity:1" /><path
       d="m 73.877,128.264 -4.754,-13.31 h 2.907 l 3.367,9.854 3.263,-9.854 h 2.854 l -4.777,13.31 z"
       id="path76"
       inkscape:connector-curvature="0"
       style="fill:#005a9b;fill-opacity:1" /><path
       d="m 82.884,128.264 v -13.31 h 9.859 v 2.255 h -7.18 v 2.947 h 6.688 v 2.245 h -6.688 v 3.624 h 7.438 v 2.238 H 82.884 Z"
       id="path78"
       inkscape:connector-curvature="0"
       style="fill:#005a9b;fill-opacity:1" /><path
       d="m 95.296,128.264 v -13.31 h 5.651 c 1.418,0 2.454,0.12 3.103,0.362 0.647,0.234 1.157,0.661 1.544,1.274 0.387,0.611 0.579,1.311 0.579,2.096 0,0.999 -0.285,1.825 -0.872,2.473 -0.587,0.654 -1.47,1.064 -2.635,1.232 0.579,0.342 1.064,0.713 1.442,1.118 0.376,0.406 0.879,1.128 1.524,2.157 l 1.626,2.597 h -3.215 l -1.938,-2.896 c -0.697,-1.031 -1.16,-1.687 -1.418,-1.953 -0.258,-0.268 -0.532,-0.459 -0.808,-0.559 -0.292,-0.1 -0.735,-0.146 -1.351,-0.146 h -0.555 v 5.553 h -2.677 z m 2.679,-7.679 h 1.987 c 1.296,0 2.102,-0.052 2.417,-0.161 0.328,-0.11 0.57,-0.297 0.764,-0.567 0.181,-0.264 0.264,-0.6 0.264,-0.999 0,-0.444 -0.114,-0.81 -0.355,-1.083 -0.243,-0.273 -0.575,-0.446 -1.014,-0.524 -0.219,-0.024 -0.877,-0.041 -1.958,-0.041 h -2.104 v 3.375 z"
       id="path80"
       inkscape:connector-curvature="0"
       style="fill:#005a9b;fill-opacity:1" /><path
       d="m 108.028,123.938 2.616,-0.259 c 0.154,0.876 0.482,1.524 0.955,1.937 0.487,0.413 1.14,0.619 1.955,0.619 0.858,0 1.514,-0.186 1.956,-0.553 0.442,-0.364 0.648,-0.795 0.648,-1.284 0,-0.315 -0.085,-0.581 -0.269,-0.804 -0.184,-0.223 -0.515,-0.414 -0.965,-0.574 -0.322,-0.109 -1.034,-0.303 -2.162,-0.58 -1.43,-0.361 -2.44,-0.795 -3.02,-1.318 -0.819,-0.733 -1.229,-1.626 -1.229,-2.678 0,-0.682 0.191,-1.311 0.575,-1.9 0.383,-0.596 0.933,-1.042 1.662,-1.352 0.721,-0.31 1.599,-0.461 2.609,-0.461 1.676,0 2.938,0.364 3.785,1.1 0.833,0.727 1.279,1.709 1.325,2.927 l -2.693,0.12 c -0.11,-0.684 -0.359,-1.175 -0.735,-1.475 -0.378,-0.299 -0.942,-0.453 -1.696,-0.453 -0.792,0 -1.395,0.165 -1.836,0.488 -0.291,0.204 -0.429,0.479 -0.429,0.82 0,0.315 0.129,0.586 0.399,0.809 0.334,0.283 1.159,0.579 2.473,0.889 1.302,0.31 2.267,0.631 2.896,0.962 0.627,0.328 1.109,0.779 1.475,1.35 0.351,0.577 0.526,1.284 0.526,2.121 0,0.766 -0.213,1.476 -0.639,2.146 -0.426,0.664 -1.024,1.158 -1.797,1.483 -0.773,0.325 -1.736,0.484 -2.889,0.484 -1.688,0 -2.974,-0.388 -3.882,-1.164 -0.891,-0.782 -1.44,-1.911 -1.614,-3.4 z"
       id="path82"
       inkscape:connector-curvature="0"
       style="fill:#005a9b;fill-opacity:1" /><path
       d="m 121.029,128.264 v -13.31 h 2.694 v 13.31 z"
       id="path84"
       inkscape:connector-curvature="0"
       style="fill:#005a9b;fill-opacity:1" /><path
       d="m 126.271,114.954 h 4.904 c 1.116,0 1.964,0.088 2.543,0.258 0.78,0.23 1.45,0.634 2.007,1.227 0.554,0.587 0.98,1.307 1.262,2.153 0.297,0.853 0.438,1.899 0.438,3.149 0,1.096 -0.131,2.035 -0.408,2.828 -0.329,0.974 -0.809,1.756 -1.428,2.355 -0.456,0.45 -1.088,0.809 -1.88,1.059 -0.593,0.188 -1.386,0.28 -2.378,0.28 h -5.061 v -13.309 z m 2.694,2.255 v 8.816 h 2.004 c 0.75,0 1.288,-0.046 1.615,-0.129 0.438,-0.11 0.798,-0.293 1.092,-0.551 0.292,-0.265 0.516,-0.694 0.696,-1.29 0.194,-0.596 0.277,-1.408 0.277,-2.434 0,-1.031 -0.083,-1.82 -0.277,-2.375 -0.181,-0.547 -0.424,-0.979 -0.761,-1.289 -0.321,-0.309 -0.737,-0.515 -1.244,-0.62 -0.376,-0.091 -1.105,-0.129 -2.199,-0.129 h -1.203 z"
       id="path86"
       inkscape:connector-curvature="0"
       style="fill:#005a9b;fill-opacity:1" /><path
       d="m 151.713,128.264 h -2.932 l -1.16,-3.018 h -5.314 l -1.105,3.018 h -2.84 l 5.183,-13.31 h 2.833 z m -4.944,-5.264 -1.836,-4.94 -1.797,4.94 z"
       id="path88"
       inkscape:connector-curvature="0"
       style="fill:#005a9b;fill-opacity:1" /><path
       d="m 153.131,114.954 h 4.905 c 1.115,0 1.95,0.088 2.542,0.258 0.779,0.23 1.438,0.634 2.008,1.227 0.553,0.587 0.979,1.307 1.261,2.153 0.298,0.853 0.438,1.899 0.438,3.149 0,1.096 -0.131,2.035 -0.408,2.828 -0.329,0.974 -0.809,1.756 -1.428,2.355 -0.461,0.45 -1.088,0.809 -1.881,1.059 -0.592,0.188 -1.385,0.28 -2.381,0.28 h -5.057 v -13.309 z m 2.679,2.255 v 8.816 h 2.007 c 0.761,0 1.299,-0.046 1.627,-0.129 0.438,-0.11 0.798,-0.293 1.092,-0.551 0.279,-0.265 0.517,-0.694 0.695,-1.29 0.182,-0.596 0.278,-1.408 0.278,-2.434 0,-1.031 -0.097,-1.82 -0.278,-2.375 -0.179,-0.547 -0.438,-0.979 -0.76,-1.289 -0.321,-0.309 -0.737,-0.515 -1.247,-0.62 -0.373,-0.091 -1.103,-0.129 -2.206,-0.129 h -1.208 z"
       id="path90"
       inkscape:connector-curvature="0"
       style="fill:#005a9b;fill-opacity:1" /><path
       d="m 166.569,128.264 v -13.31 h 9.859 v 2.255 h -7.18 v 2.947 h 6.688 v 2.245 h -6.688 v 3.624 h 7.438 v 2.238 h -10.117 z"
       id="path92"
       inkscape:connector-curvature="0"
       style="fill:#005a9b;fill-opacity:1" /><path
       d="m 184.126,114.954 h 4.905 c 1.115,0 1.963,0.088 2.542,0.258 0.78,0.23 1.44,0.634 2.008,1.227 0.554,0.587 0.979,1.307 1.261,2.153 0.298,0.853 0.438,1.899 0.438,3.149 0,1.096 -0.131,2.035 -0.409,2.828 -0.328,0.974 -0.809,1.756 -1.427,2.355 -0.456,0.45 -1.088,0.809 -1.88,1.059 -0.594,0.188 -1.386,0.28 -2.378,0.28 h -5.061 v -13.309 z m 2.68,2.255 v 8.816 h 2.007 c 0.761,0 1.298,-0.046 1.626,-0.129 0.438,-0.11 0.798,-0.293 1.092,-0.551 0.281,-0.265 0.516,-0.694 0.696,-1.29 0.18,-0.596 0.276,-1.408 0.276,-2.434 0,-1.031 -0.096,-1.82 -0.276,-2.375 -0.181,-0.547 -0.424,-0.979 -0.76,-1.289 -0.322,-0.309 -0.738,-0.515 -1.247,-0.62 -0.374,-0.091 -1.104,-0.129 -2.206,-0.129 h -1.208 z"
       id="path94"
       inkscape:connector-curvature="0"
       style="fill:#005a9b;fill-opacity:1" /><path
       d="m 197.564,128.264 v -13.31 h 9.859 v 2.255 h -7.18 v 2.947 h 6.688 v 2.245 h -6.688 v 3.624 h 7.438 v 2.238 h -10.117 z"
       id="path96"
       inkscape:connector-curvature="0"
       style="fill:#005a9b;fill-opacity:1" /><path
       d="m 214.442,123.938 2.616,-0.259 c 0.166,0.876 0.483,1.524 0.967,1.937 0.477,0.413 1.129,0.619 1.947,0.619 0.856,0 1.512,-0.186 1.953,-0.553 0.441,-0.364 0.662,-0.795 0.662,-1.284 0,-0.315 -0.099,-0.581 -0.281,-0.804 -0.186,-0.223 -0.501,-0.414 -0.966,-0.574 -0.309,-0.109 -1.034,-0.303 -2.148,-0.58 -1.443,-0.361 -2.455,-0.795 -3.034,-1.318 -0.818,-0.733 -1.228,-1.626 -1.228,-2.678 0,-0.682 0.191,-1.311 0.575,-1.9 0.382,-0.596 0.933,-1.042 1.666,-1.352 0.717,-0.31 1.596,-0.461 2.619,-0.461 1.662,0 2.924,0.364 3.771,1.1 0.848,0.727 1.279,1.709 1.324,2.927 l -2.679,0.12 c -0.123,-0.684 -0.374,-1.175 -0.75,-1.475 -0.376,-0.299 -0.941,-0.453 -1.694,-0.453 -0.78,0 -1.393,0.165 -1.837,0.488 -0.291,0.204 -0.43,0.479 -0.43,0.82 0,0.315 0.13,0.586 0.399,0.809 0.334,0.283 1.16,0.579 2.476,0.889 1.3,0.31 2.266,0.631 2.894,0.962 0.628,0.328 1.125,0.779 1.476,1.35 0.351,0.577 0.526,1.284 0.526,2.121 0,0.766 -0.213,1.476 -0.633,2.146 -0.417,0.664 -1.016,1.158 -1.803,1.483 -0.773,0.325 -1.736,0.484 -2.889,0.484 -1.688,0 -2.973,-0.388 -3.882,-1.164 -0.893,-0.782 -1.431,-1.911 -1.617,-3.4 z"
       id="path98"
       inkscape:connector-curvature="0"
       style="fill:#005a9b;fill-opacity:1" /><path
       d="m 239.534,128.264 h -2.917 l -1.174,-3.018 h -5.315 l -1.092,3.018 h -2.853 l 5.183,-13.31 h 2.844 z m -8.865,-14.041 h -1.158 c -0.008,-0.142 -0.011,-0.251 -0.011,-0.329 0,-0.638 0.15,-1.125 0.467,-1.463 0.304,-0.346 0.699,-0.515 1.189,-0.515 0.213,0 0.409,0.024 0.589,0.065 0.181,0.049 0.508,0.174 0.995,0.391 0.486,0.215 0.861,0.324 1.124,0.324 0.194,0 0.367,-0.059 0.492,-0.181 0.125,-0.122 0.215,-0.325 0.254,-0.608 h 1.178 c -0.007,0.818 -0.155,1.4 -0.463,1.748 -0.291,0.355 -0.684,0.529 -1.153,0.529 -0.208,0 -0.409,-0.023 -0.609,-0.062 -0.136,-0.039 -0.494,-0.165 -1.047,-0.377 -0.554,-0.206 -0.96,-0.312 -1.219,-0.312 -0.192,0 -0.34,0.056 -0.457,0.175 -0.103,0.121 -0.165,0.325 -0.171,0.615 z m 3.921,8.777 -1.836,-4.94 -1.797,4.94 z"
       id="path100"
       inkscape:connector-curvature="0"
       style="fill:#005a9b;fill-opacity:1" /><path
       d="m 240.42,121.692 c 0,-1.352 0.203,-2.493 0.609,-3.414 0.296,-0.677 0.71,-1.285 1.229,-1.826 0.532,-0.535 1.104,-0.935 1.729,-1.199 0.832,-0.348 1.784,-0.521 2.859,-0.521 1.973,0 3.54,0.609 4.716,1.82 1.175,1.217 1.763,2.908 1.763,5.08 0,2.145 -0.583,3.824 -1.748,5.039 -1.166,1.215 -2.729,1.822 -4.69,1.822 -1.979,0 -3.55,-0.604 -4.717,-1.812 -1.166,-1.208 -1.75,-2.869 -1.75,-4.989 z m 2.768,-0.089 c 0,1.508 0.345,2.646 1.047,3.43 0.689,0.775 1.579,1.164 2.642,1.164 1.075,0 1.96,-0.385 2.64,-1.154 0.692,-0.777 1.032,-1.932 1.032,-3.479 0,-1.52 -0.33,-2.66 -1.004,-3.414 -0.673,-0.748 -1.554,-1.121 -2.668,-1.121 -1.102,0 -2.001,0.379 -2.67,1.135 -0.685,0.764 -1.019,1.905 -1.019,3.439 z"
       id="path102"
       inkscape:connector-curvature="0"
       style="fill:#005a9b;fill-opacity:1" /><path
       d="m 260.592,128.264 v -13.31 h 4.307 c 1.637,0 2.707,0.07 3.195,0.199 0.767,0.199 1.401,0.637 1.924,1.303 0.509,0.674 0.77,1.535 0.77,2.592 0,0.818 -0.144,1.504 -0.448,2.064 -0.289,0.555 -0.677,0.994 -1.125,1.313 -0.461,0.319 -0.93,0.526 -1.394,0.626 -0.644,0.129 -1.568,0.195 -2.786,0.195 h -1.763 v 5.017 h -2.68 z m 2.679,-11.055 v 3.774 h 1.477 c 1.062,0 1.764,-0.066 2.119,-0.209 0.367,-0.135 0.639,-0.354 0.842,-0.65 0.203,-0.296 0.312,-0.645 0.312,-1.037 0,-0.482 -0.152,-0.883 -0.429,-1.198 -0.29,-0.316 -0.647,-0.513 -1.086,-0.59 -0.315,-0.058 -0.963,-0.09 -1.93,-0.09 z"
       id="path104"
       inkscape:connector-curvature="0"
       style="fill:#005a9b;fill-opacity:1" /><path
       d="m 284.996,128.264 h -2.928 l -1.163,-3.018 h -5.314 l -1.105,3.018 h -2.841 l 5.184,-13.31 h 2.839 z m -4.943,-5.264 -1.837,-4.94 -1.797,4.94 z"
       id="path106"
       inkscape:connector-curvature="0"
       style="fill:#005a9b;fill-opacity:1" /><path
       d="m 286.404,114.954 h 2.68 v 7.209 c 0,1.146 0.036,1.885 0.106,2.226 0.108,0.548 0.389,0.981 0.824,1.313 0.435,0.332 1.026,0.494 1.772,0.494 0.76,0 1.333,-0.152 1.72,-0.466 0.387,-0.312 0.622,-0.693 0.706,-1.151 0.07,-0.451 0.112,-1.208 0.112,-2.258 v -7.367 h 2.693 v 6.996 c 0,1.598 -0.078,2.722 -0.22,3.386 -0.141,0.657 -0.413,1.218 -0.803,1.669 -0.391,0.451 -0.912,0.816 -1.564,1.084 -0.657,0.268 -1.514,0.404 -2.557,0.404 -1.276,0 -2.238,-0.144 -2.898,-0.442 -0.661,-0.294 -1.174,-0.675 -1.554,-1.142 -0.38,-0.467 -0.635,-0.957 -0.751,-1.473 -0.188,-0.768 -0.268,-1.889 -0.268,-3.384 v -7.098 z"
       id="path108"
       inkscape:connector-curvature="0"
       style="fill:#005a9b;fill-opacity:1" /><path
       d="m 299.917,128.264 v -13.2 h 2.693 v 10.962 h 6.678 v 2.238 z"
       id="path110"
       inkscape:connector-curvature="0"
       style="fill:#005a9b;fill-opacity:1" /><path
       d="m 310.668,121.692 c 0,-1.352 0.203,-2.493 0.608,-3.414 0.295,-0.677 0.71,-1.285 1.229,-1.826 0.531,-0.535 1.103,-0.935 1.729,-1.199 0.831,-0.348 1.784,-0.521 2.866,-0.521 1.966,0 3.533,0.609 4.708,1.82 1.176,1.217 1.764,2.908 1.764,5.08 0,2.145 -0.583,3.824 -1.749,5.039 -1.165,1.215 -2.725,1.822 -4.691,1.822 -1.978,0 -3.549,-0.604 -4.714,-1.812 -1.168,-1.208 -1.75,-2.869 -1.75,-4.989 z m 2.767,-0.089 c 0,1.508 0.344,2.646 1.047,3.43 0.688,0.775 1.578,1.164 2.64,1.164 1.078,0 1.963,-0.385 2.641,-1.154 0.693,-0.777 1.033,-1.932 1.033,-3.479 0,-1.52 -0.33,-2.66 -1.004,-3.414 -0.674,-0.748 -1.554,-1.121 -2.67,-1.121 -1.101,0 -2,0.379 -2.669,1.135 -0.684,0.764 -1.018,1.905 -1.018,3.439 z"
       id="path112"
       inkscape:connector-curvature="0"
       style="fill:#005a9b;fill-opacity:1" /></g></g>
</g>
</svg>