<?xml version="1.0" encoding="utf-8"?>
<!-- Generator: Adobe Illustrator 16.0.0, SVG Export Plug-In . SVG Version: 6.00 Build 0)  -->
<!DOCTYPE svg PUBLIC "-//W3C//DTD SVG 1.1//EN" "http://www.w3.org/Graphics/SVG/1.1/DTD/svg11.dtd">
<svg version="1.1" id="Layer_1" xmlns="http://www.w3.org/2000/svg" xmlns:xlink="http://www.w3.org/1999/xlink" x="0px" y="0px"
	 width="61px" height="28px" viewBox="0 0 61 28" enable-background="new 0 0 61 28" xml:space="preserve">
<g>
	<g>
		<path fill-rule="evenodd" clip-rule="evenodd" d="M20.592,6.743h-6.523v13.839h-1.92V6.788H5.543v13.4
			c-0.201,2.826,1.123,3.615,3.193,3.592l8.568,0.086c2.342,0.02,3.592-1.274,3.408-4.012l2.197-0.02
			c-0.033,2.629,0.986,4.075,3.537,4.074h8.969c1.98,0.016,3.051-1.047,2.797-3.677l-0.041-1.711l-8.049-7.835l1.223-1.402
			l8.752,8.364l0.037,3.986c0.018,3.114-1.637,4.136-4.061,4.202H25.09c-1.336,0.023-2.4-0.658-3.188-2.057
			c-0.826,1.515-1.889,2.012-3.324,1.971L7.51,25.703c-2.643-0.185-3.842-1.356-3.889-4.068L3.572,4.862l16.971,0.043L20.592,6.743z
			"/>
	</g>
	<g>
		<path fill-rule="evenodd" clip-rule="evenodd" d="M40.307,24.064l6.572-0.015l-0.133-13.938l2.086-0.033v6.968l6.57-0.036
			l-0.041-6.453c0.057-2.855-1.041-3.675-3.041-3.574l-9.117-0.041c-2.34-0.021-3.143,1.24-2.957,3.978l-2.342-0.014
			c0.027-2.711-0.75-4.139-3.307-4.057h-8.957c-1.988-0.01-3.262,0.376-3,3.008l0.105,2.445l8.186,7.772l-1.223,1.398l-8.854-8.328
			l-0.141-4.053c-0.02-3.115,1.84-4.104,4.264-4.172h10.982c1.904,0.152,2.354,0.908,2.971,2.217
			c0.68-1.718,1.691-2.111,3.141-2.195l11.113,0.079c2.322,0.155,4.045,1.399,4.168,4.12l0.021,2.469l0.02,2.467l0.02,2.466
			l0.016,2.468l-8.625,0.008l-0.023,6.875l-8.477-0.037L40.307,24.064z"/>
	</g>
</g>
<rect fill="none" width="61" height="28"/>
</svg>
